<?xml version="1.0" encoding="UTF-8" standalone="no"?>
<!DOCTYPE svg PUBLIC "-//W3C//DTD SVG 1.1//EN" "http://www.w3.org/Graphics/SVG/1.1/DTD/svg11.dtd">
<svg xmlns="http://www.w3.org/2000/svg" version="1.1" viewBox="0.00 0.00 1448.00 1448.00" width="1544.00" height="1544.00">
<clipPath id="clipping-path-0">
<path d="
  M 0.00 0.00
  L 1448.00 0.00
  L 1448.00 1448.00
  L 0.00 1448.00
  L 0.00 0.00
  Z"/>
</clipPath>
<g stroke-width="2.00" fill="none" stroke-linecap="butt" clip-path="url(#clipping-path-0)">
<path stroke="#898989" vector-effect="non-scaling-stroke" d="
  M 563.47 464.41
  Q 563.08 464.73 562.77 465.14
  Q 556.85 472.89 555.47 482.33
  Q 554.75 487.23 556.10 492.07
  C 560.09 506.31 571.17 517.41 586.33 518.22
  Q 594.73 518.67 604.56 515.79
  A 1.74 1.71 43.3 0 1 605.49 515.77
  Q 611.79 517.43 617.13 519.71
  Q 680.55 546.83 775.02 587.66
  C 783.29 591.23 790.79 587.65 794.36 579.14
  Q 805.68 552.18 818.10 523.83
  C 819.97 519.56 821.37 515.22 822.27 510.62
  Q 822.76 508.07 820.95 506.34
  C 814.79 500.44 804.00 493.71 795.15 494.76
  C 789.87 495.39 787.01 499.62 785.04 504.33
  Q 777.60 522.13 769.81 540.25
  Q 768.36 543.62 764.34 541.89
  Q 694.94 512.01 626.82 482.35
  C 622.88 480.64 621.97 477.58 620.66 473.99
  Q 619.06 469.62 614.58 463.69
  Q 612.93 461.52 610.62 459.80
  C 603.74 454.71 597.02 451.80 588.15 451.88
  Q 574.60 451.99 564.69 462.80
  Q 564.51 463.00 564.30 463.18
  Q 564.06 463.37 563.97 463.67
  Q 563.84 464.12 563.47 464.41"
/>
<path stroke="#898989" vector-effect="non-scaling-stroke" d="
  M 840.79 676.28
  C 836.05 674.52 830.77 672.80 826.97 669.39
  A 1.94 1.92 32.8 0 1 826.48 667.20
  Q 856.49 596.95 886.71 526.03
  Q 887.61 523.91 889.57 522.87
  C 906.51 513.93 919.75 502.17 914.31 480.92
  C 911.06 468.24 901.45 458.82 888.53 456.32
  C 880.30 454.73 870.92 456.38 863.72 460.60
  C 847.68 470.00 845.34 489.53 852.11 505.60
  C 852.66 506.90 852.81 508.52 852.26 509.83
  Q 822.09 580.28 794.11 646.92
  Q 789.42 658.09 784.62 668.22
  Q 782.48 672.73 780.70 678.57
  C 778.62 685.42 780.17 691.32 786.88 694.25
  Q 816.44 707.14 852.94 722.34
  C 861.89 726.07 866.59 720.95 869.85 713.28
  Q 871.54 709.30 873.44 705.03
  C 877.55 695.78 872.58 690.58 864.57 686.61
  Q 852.42 680.57 840.79 676.28"
/>
<path stroke="#898989" vector-effect="non-scaling-stroke" d="
  M 775.3505 500.9326
  A 7.04 7.04 0.0 0 0 771.6532 491.6886
  L 696.3209 459.4011
  A 7.04 7.04 0.0 0 0 687.0768 463.0984
  L 677.6695 485.0474
  A 7.04 7.04 0.0 0 0 681.3668 494.2914
  L 756.6991 526.5789
  A 7.04 7.04 0.0 0 0 765.9432 522.8816
  L 775.3505 500.9326"
/>
<path stroke="#898989" vector-effect="non-scaling-stroke" d="
  M 609.29 810.01
  Q 609.61 809.86 609.89 809.63
  Q 618.87 802.08 621.42 790.76
  Q 624.25 778.19 617.02 765.06
  Q 616.19 763.55 616.26 762.48
  Q 616.35 761.20 616.82 760.05
  Q 650.67 678.34 686.37 592.28
  C 690.82 581.55 676.23 574.76 668.71 571.83
  Q 641.58 561.27 616.26 550.23
  Q 607.64 546.48 601.51 551.45
  C 597.78 554.47 595.90 559.77 593.82 564.15
  C 589.22 573.86 591.33 581.26 601.49 585.38
  Q 620.44 593.08 638.57 600.51
  Q 641.61 601.75 640.34 604.78
  Q 610.92 674.73 583.15 742.76
  C 581.31 747.26 579.26 750.43 575.34 753.12
  Q 570.80 756.24 566.66 759.25
  Q 561.60 762.92 558.48 770.19
  Q 554.57 779.29 556.08 789.22
  C 558.33 803.97 572.53 817.16 587.72 817.80
  Q 598.87 818.26 607.87 811.20
  Q 608.22 810.92 608.53 810.58
  A 2.15 2.06 6.8 0 1 609.29 810.01"
/>
<path stroke="#898989" vector-effect="non-scaling-stroke" d="
  M 909.2812 597.8253
  A 6.99 6.99 0.0 0 0 905.6261 588.6405
  L 883.5834 579.1474
  A 6.99 6.99 0.0 0 0 874.3986 582.8025
  L 842.0588 657.8947
  A 6.99 6.99 0.0 0 0 845.7139 667.0795
  L 867.7566 676.5726
  A 6.99 6.99 0.0 0 0 876.9414 672.9175
  L 909.2812 597.8253"
/>
<path stroke="#898989" vector-effect="non-scaling-stroke" d="
  M 624.3573 614.2901
  A 7.39 7.39 0.0 0 0 620.3747 604.6276
  L 599.0670 595.7581
  A 7.39 7.39 0.0 0 0 589.4045 599.7407
  L 558.3227 674.4099
  A 7.39 7.39 0.0 0 0 562.3053 684.0724
  L 583.6130 692.9419
  A 7.39 7.39 0.0 0 0 593.2755 688.9593
  L 624.3573 614.2901"
/>
<path stroke="#898989" vector-effect="non-scaling-stroke" d="
  M 839.94 786.31
  C 843.43 787.76 846.10 790.02 847.41 793.75
  C 854.42 813.59 877.18 825.15 896.34 813.46
  Q 914.88 802.15 913.17 781.62
  C 911.30 759.19 890.48 746.66 869.32 752.51
  C 864.09 753.96 859.87 753.71 854.99 751.67
  Q 775.41 718.37 693.86 683.91
  C 685.29 680.30 677.76 682.12 673.72 691.48
  Q 661.69 719.39 647.39 753.69
  C 645.80 757.49 645.30 763.10 648.47 766.33
  C 653.57 771.55 660.50 774.98 667.85 776.33
  C 675.50 777.72 680.05 772.75 682.95 766.42
  Q 690.85 749.17 697.64 731.02
  C 698.57 728.53 700.79 727.85 703.32 728.92
  Q 770.88 757.71 839.94 786.31"
/>
<path stroke="#898989" vector-effect="non-scaling-stroke" d="
  M 790.5578 785.2656
  A 6.96 6.96 0.0 0 0 786.8546 776.1459
  L 711.3543 744.2533
  A 6.96 6.96 0.0 0 0 702.2345 747.9564
  L 692.9422 769.9544
  A 6.96 6.96 0.0 0 0 696.6454 779.0741
  L 772.1457 810.9667
  A 6.96 6.96 0.0 0 0 781.2655 807.2636
  L 790.5578 785.2656"
/>
<path stroke="#898989" vector-effect="non-scaling-stroke" d="
  M 351.63 922.22
  L 351.32 1011.00
  A 2.59 2.59 0.0 0 0 353.90 1013.60
  L 407.91 1013.78
  A 25.62 25.59 0.2 0 0 433.62 988.28
  L 433.76 945.50
  A 25.62 25.59 0.2 0 0 408.23 919.82
  L 354.22 919.64
  A 2.59 2.59 0.0 0 0 351.63 922.22"
/>
<path stroke="#898989" vector-effect="non-scaling-stroke" d="
  M 751.22 963.03
  Q 751.44 963.02 751.98 963.77
  Q 768.83 987.55 785.60 1011.39
  Q 787.02 1013.41 789.50 1013.43
  Q 797.84 1013.53 805.77 1013.43
  Q 808.21 1013.40 808.21 1010.96
  Q 808.19 967.66 808.11 924.43
  Q 808.10 922.63 807.65 921.39
  A 1.87 1.87 0.0 0 0 805.90 920.17
  L 786.82 920.25
  A 2.41 2.41 0.0 0 0 784.42 922.66
  Q 784.40 942.61 784.39 965.00
  Q 784.39 966.82 784.24 968.73
  Q 784.07 970.68 782.85 969.14
  Q 774.79 958.96 766.37 946.96
  Q 763.29 942.57 754.83 929.27
  Q 751.88 924.64 749.45 922.82
  C 743.91 918.68 734.59 919.39 728.04 920.22
  A 1.35 1.34 86.4 0 0 726.87 921.56
  L 726.78 1011.08
  A 2.51 2.51 0.0 0 0 729.33 1013.59
  L 748.18 1013.26
  A 2.66 2.65 89.2 0 0 750.79 1010.57
  L 750.20 964.25
  Q 750.18 963.12 751.22 963.03"
/>
<path stroke="#898989" vector-effect="non-scaling-stroke" d="
  M 536.3435 943.0538
  A 22.84 22.84 0.0 0 0 513.5833 920.1342
  L 476.9635 920.0064
  A 22.84 22.84 0.0 0 0 454.0440 942.7665
  L 453.8765 990.7262
  A 22.84 22.84 0.0 0 0 476.6367 1013.6458
  L 513.2565 1013.7736
  A 22.84 22.84 0.0 0 0 536.1760 991.0135
  L 536.3435 943.0538"
/>
<path stroke="#898989" vector-effect="non-scaling-stroke" d="
  M 582.51 964.16
  Q 583.19 964.30 583.52 964.92
  Q 589.99 977.06 596.68 989.96
  Q 597.85 992.22 600.47 992.86
  Q 610.08 995.20 614.16 985.65
  Q 618.95 974.45 624.75 965.47
  Q 625.17 964.81 625.94 964.84
  A 0.63 0.62 -89.1 0 1 626.54 965.47
  L 626.14 1010.78
  A 2.43 2.42 -89.4 0 0 628.53 1013.23
  L 647.95 1013.48
  Q 650.91 1013.52 650.91 1010.55
  L 650.79 922.28
  A 2.24 2.24 0.0 0 0 648.55 920.04
  Q 638.55 920.04 628.33 920.23
  C 626.65 920.26 625.52 921.28 624.75 922.75
  Q 615.24 940.81 606.48 958.76
  Q 606.08 959.58 605.55 960.32
  Q 604.40 961.91 602.94 960.61
  Q 601.97 959.75 601.45 958.61
  Q 592.42 938.96 584.34 924.60
  Q 581.93 920.31 577.20 920.22
  Q 568.87 920.06 559.66 920.04
  Q 557.56 920.04 557.56 922.13
  L 557.47 1011.40
  A 1.93 1.92 89.9 0 0 559.40 1013.33
  L 580.41 1013.17
  A 2.05 2.05 0.0 0 0 582.44 1011.09
  L 581.86 964.69
  Q 581.85 964.02 582.51 964.16"
/>
<path stroke="#898989" vector-effect="non-scaling-stroke" d="
  M 671.67 938.45
  C 673.84 940.21 676.24 942.74 676.24 945.65
  Q 676.21 968.81 676.20 990.18
  C 676.20 991.64 675.72 993.22 674.18 993.68
  Q 669.70 995.00 668.85 999.15
  Q 667.82 1004.14 668.40 1010.90
  Q 668.59 1013.20 670.87 1013.24
  Q 688.85 1013.54 706.35 1013.59
  A 1.95 1.94 -0.9 0 0 708.30 1011.59
  Q 708.12 1005.44 707.97 998.92
  C 707.90 995.64 704.16 994.50 701.95 992.77
  A 2.04 1.97 -79.0 0 1 701.24 991.67
  C 701.04 990.86 700.60 990.59 700.61 989.64
  Q 700.82 965.61 700.78 943.91
  C 700.76 939.12 707.86 938.70 708.01 934.81
  Q 708.22 929.31 708.06 922.21
  A 2.09 2.08 89.3 0 0 705.98 920.17
  L 670.23 920.01
  Q 668.67 920.01 668.64 921.56
  Q 668.52 928.09 668.73 935.49
  Q 668.76 936.54 670.01 937.28
  Q 670.88 937.80 671.67 938.45"
/>
<path stroke="#898989" vector-effect="non-scaling-stroke" d="
  M 829.75 922.59
  L 829.75 1011.15
  A 2.61 2.61 0.0 0 0 832.36 1013.76
  L 887.61 1013.76
  A 24.18 23.57 -0.0 0 0 911.79 990.19
  L 911.79 943.55
  A 24.18 23.57 0.0 0 0 887.61 919.98
  L 832.36 919.98
  A 2.61 2.61 0.0 0 0 829.75 922.59"
/>
<path stroke="#898989" vector-effect="non-scaling-stroke" d="
  M 956.56 944.15
  Q 956.51 940.91 959.74 940.93
  L 1009.02 941.27
  A 2.77 2.77 0.0 0 0 1011.81 938.48
  L 1011.72 923.57
  Q 1011.70 920.08 1008.21 920.07
  Q 972.42 919.96 934.92 920.14
  Q 934.31 920.14 933.82 920.49
  Q 933.11 920.99 933.12 921.85
  Q 933.36 953.97 933.02 989.11
  Q 932.96 994.83 933.74 997.74
  C 935.71 1005.05 941.72 1011.11 949.02 1012.89
  Q 952.04 1013.62 960.68 1013.58
  Q 986.90 1013.46 1008.53 1013.43
  Q 1011.94 1013.43 1011.86 1010.02
  L 1011.49 995.56
  Q 1011.42 992.45 1008.31 992.47
  L 959.68 992.83
  Q 956.76 992.85 956.75 989.93
  L 956.74 979.24
  A 2.76 2.76 0.0 0 1 959.51 976.48
  L 1002.85 976.59
  A 2.40 2.40 0.0 0 0 1005.26 974.15
  L 1005.06 959.55
  A 2.38 2.38 0.0 0 0 1002.73 957.20
  Q 981.78 956.76 959.72 956.59
  C 956.33 956.56 956.46 953.24 956.52 950.81
  Q 956.60 947.24 956.56 944.15"
/>
<path stroke="#898989" vector-effect="non-scaling-stroke" d="
  M 1092.13 924.92
  Q 1083.29 949.27 1073.27 977.58
  A 1.01 1.00 -63.7 0 1 1071.78 978.09
  Q 1071.32 977.79 1070.95 976.74
  Q 1060.85 948.17 1052.98 926.46
  C 1051.69 922.88 1050.46 920.11 1046.61 920.06
  Q 1037.67 919.95 1030.24 920.19
  Q 1028.86 920.23 1028.74 921.60
  Q 1027.94 930.76 1031.95 941.05
  Q 1047.37 980.56 1058.02 1009.85
  Q 1059.32 1013.40 1063.09 1013.48
  Q 1071.80 1013.66 1081.55 1013.73
  Q 1084.86 1013.75 1086.02 1010.67
  Q 1100.91 971.02 1114.06 936.50
  Q 1116.81 929.27 1115.87 922.25
  Q 1115.60 920.27 1113.63 920.22
  Q 1105.03 920.00 1096.35 920.03
  C 1093.73 920.04 1092.85 922.94 1092.13 924.92"
/>
<path stroke="#898989" vector-effect="non-scaling-stroke" d="
  M 577.66 471.22
  Q 574.56 473.80 572.48 477.56
  Q 570.93 480.38 570.87 484.54
  Q 570.75 494.30 578.32 499.79
  C 590.40 508.55 605.70 500.62 607.47 486.62
  Q 608.01 482.31 606.01 477.74
  Q 604.10 473.39 600.44 470.14
  Q 599.41 469.23 598.35 468.96
  Q 597.12 468.64 596.05 468.23
  Q 595.98 468.20 596.04 468.16
  Q 596.08 468.13 596.06 468.07
  Q 596.03 467.96 595.91 467.93
  Q 589.71 466.18 584.50 467.47
  Q 581.16 468.30 577.66 471.22"
/>
<path stroke="#898989" vector-effect="non-scaling-stroke" d="
  M 899.81 488.68
  A 18.06 18.06 0.0 0 0 881.75 470.62
  A 18.06 18.06 0.0 0 0 863.69 488.68
  A 18.06 18.06 0.0 0 0 881.75 506.74
  A 18.06 18.06 0.0 0 0 899.81 488.68"
/>
<path stroke="#898989" vector-effect="non-scaling-stroke" d="
  M 607.44 783.79
  A 18.04 18.04 0.0 0 0 589.40 765.75
  A 18.04 18.04 0.0 0 0 571.36 783.79
  A 18.04 18.04 0.0 0 0 589.40 801.83
  A 18.04 18.04 0.0 0 0 607.44 783.79"
/>
<path stroke="#898989" vector-effect="non-scaling-stroke" d="
  M 898.11 784.43
  A 18.19 18.19 0.0 0 0 879.92 766.24
  A 18.19 18.19 0.0 0 0 861.73 784.43
  A 18.19 18.19 0.0 0 0 879.92 802.62
  A 18.19 18.19 0.0 0 0 898.11 784.43"
/>
<path stroke="#898989" vector-effect="non-scaling-stroke" d="
  M 408.8488 943.1814
  A 2.60 2.60 0.0 0 0 406.2443 940.5859
  L 378.5843 940.6342
  A 2.60 2.60 0.0 0 0 375.9888 943.2387
  L 376.0712 990.4386
  A 2.60 2.60 0.0 0 0 378.6757 993.0341
  L 406.3357 992.9858
  A 2.60 2.60 0.0 0 0 408.9312 990.3813
  L 408.8488 943.1814"
/>
<path stroke="#898989" vector-effect="non-scaling-stroke" d="
  M 512.29 942.90
  A 2.22 2.22 0.0 0 0 510.07 940.68
  L 480.61 940.68
  A 2.22 2.22 0.0 0 0 478.39 942.90
  L 478.39 990.80
  A 2.22 2.22 0.0 0 0 480.61 993.02
  L 510.07 993.02
  A 2.22 2.22 0.0 0 0 512.29 990.80
  L 512.29 942.90"
/>
<path stroke="#898989" vector-effect="non-scaling-stroke" d="
  M 887.18 942.91
  A 2.26 2.26 0.0 0 0 884.92 940.65
  L 856.44 940.65
  A 2.26 2.26 0.0 0 0 854.18 942.91
  L 854.18 990.69
  A 2.26 2.26 0.0 0 0 856.44 992.95
  L 884.92 992.95
  A 2.26 2.26 0.0 0 0 887.18 990.69
  L 887.18 942.91"
/>
</g>
<path fill="#ffffff" d="
  M 140.33 418.88
  C 144.19 394.53 159.70 375.36 180.44 363.28
  Q 382.50 245.60 586.55 129.07
  Q 595.73 123.83 604.53 118.45
  Q 634.71 100.02 661.28 83.98
  Q 677.02 74.46 695.90 64.91
  C 710.35 57.59 723.34 53.53 738.92 54.59
  C 753.35 55.57 766.06 60.74 778.91 68.10
  C 788.80 73.77 798.71 79.14 808.46 84.88
  C 837.50 101.98 865.78 118.92 894.22 135.43
  Q 1088.30 248.17 1278.18 357.35
  Q 1293.01 365.88 1305.63 377.63
  Q 1323.23 394.05 1327.86 416.77
  Q 1329.40 424.35 1329.61 436.72
  Q 1330.09 465.27 1330.10 492.30
  Q 1330.19 759.19 1330.04 1025.30
  C 1330.03 1039.85 1327.64 1053.73 1320.87 1066.44
  C 1311.71 1083.64 1295.32 1094.74 1278.96 1104.22
  Q 1082.38 1218.17 872.91 1338.90
  C 846.05 1354.39 810.88 1375.96 781.72 1392.67
  Q 770.60 1399.05 763.65 1401.94
  Q 735.45 1413.69 704.04 1400.72
  Q 692.75 1396.05 680.80 1388.93
  C 649.85 1370.49 619.67 1351.69 589.51 1334.34
  Q 399.30 1224.91 213.83 1117.65
  Q 200.34 1109.86 184.32 1099.77
  Q 171.32 1091.59 167.25 1088.33
  C 151.83 1075.98 143.51 1059.87 140.69 1040.46
  Q 139.67 1033.44 139.63 1020.50
  C 139.57 998.51 139.19 977.56 139.22 956.21
  Q 139.54 701.95 139.16 437.76
  Q 139.14 426.41 140.33 418.88
  Z
  M 563.47 464.41
  Q 563.08 464.73 562.77 465.14
  Q 556.85 472.89 555.47 482.33
  Q 554.75 487.23 556.10 492.07
  C 560.09 506.31 571.17 517.41 586.33 518.22
  Q 594.73 518.67 604.56 515.79
  A 1.74 1.71 43.3 0 1 605.49 515.77
  Q 611.79 517.43 617.13 519.71
  Q 680.55 546.83 775.02 587.66
  C 783.29 591.23 790.79 587.65 794.36 579.14
  Q 805.68 552.18 818.10 523.83
  C 819.97 519.56 821.37 515.22 822.27 510.62
  Q 822.76 508.07 820.95 506.34
  C 814.79 500.44 804.00 493.71 795.15 494.76
  C 789.87 495.39 787.01 499.62 785.04 504.33
  Q 777.60 522.13 769.81 540.25
  Q 768.36 543.62 764.34 541.89
  Q 694.94 512.01 626.82 482.35
  C 622.88 480.64 621.97 477.58 620.66 473.99
  Q 619.06 469.62 614.58 463.69
  Q 612.93 461.52 610.62 459.80
  C 603.74 454.71 597.02 451.80 588.15 451.88
  Q 574.60 451.99 564.69 462.80
  Q 564.51 463.00 564.30 463.18
  Q 564.06 463.37 563.97 463.67
  Q 563.84 464.12 563.47 464.41
  Z
  M 840.79 676.28
  C 836.05 674.52 830.77 672.80 826.97 669.39
  A 1.94 1.92 32.8 0 1 826.48 667.20
  Q 856.49 596.95 886.71 526.03
  Q 887.61 523.91 889.57 522.87
  C 906.51 513.93 919.75 502.17 914.31 480.92
  C 911.06 468.24 901.45 458.82 888.53 456.32
  C 880.30 454.73 870.92 456.38 863.72 460.60
  C 847.68 470.00 845.34 489.53 852.11 505.60
  C 852.66 506.90 852.81 508.52 852.26 509.83
  Q 822.09 580.28 794.11 646.92
  Q 789.42 658.09 784.62 668.22
  Q 782.48 672.73 780.70 678.57
  C 778.62 685.42 780.17 691.32 786.88 694.25
  Q 816.44 707.14 852.94 722.34
  C 861.89 726.07 866.59 720.95 869.85 713.28
  Q 871.54 709.30 873.44 705.03
  C 877.55 695.78 872.58 690.58 864.57 686.61
  Q 852.42 680.57 840.79 676.28
  Z
  M 775.3505 500.9326
  A 7.04 7.04 0.0 0 0 771.6532 491.6886
  L 696.3209 459.4011
  A 7.04 7.04 0.0 0 0 687.0768 463.0984
  L 677.6695 485.0474
  A 7.04 7.04 0.0 0 0 681.3668 494.2914
  L 756.6991 526.5789
  A 7.04 7.04 0.0 0 0 765.9432 522.8816
  L 775.3505 500.9326
  Z
  M 609.29 810.01
  Q 609.61 809.86 609.89 809.63
  Q 618.87 802.08 621.42 790.76
  Q 624.25 778.19 617.02 765.06
  Q 616.19 763.55 616.26 762.48
  Q 616.35 761.20 616.82 760.05
  Q 650.67 678.34 686.37 592.28
  C 690.82 581.55 676.23 574.76 668.71 571.83
  Q 641.58 561.27 616.26 550.23
  Q 607.64 546.48 601.51 551.45
  C 597.78 554.47 595.90 559.77 593.82 564.15
  C 589.22 573.86 591.33 581.26 601.49 585.38
  Q 620.44 593.08 638.57 600.51
  Q 641.61 601.75 640.34 604.78
  Q 610.92 674.73 583.15 742.76
  C 581.31 747.26 579.26 750.43 575.34 753.12
  Q 570.80 756.24 566.66 759.25
  Q 561.60 762.92 558.48 770.19
  Q 554.57 779.29 556.08 789.22
  C 558.33 803.97 572.53 817.16 587.72 817.80
  Q 598.87 818.26 607.87 811.20
  Q 608.22 810.92 608.53 810.58
  A 2.15 2.06 6.8 0 1 609.29 810.01
  Z
  M 909.2812 597.8253
  A 6.99 6.99 0.0 0 0 905.6261 588.6405
  L 883.5834 579.1474
  A 6.99 6.99 0.0 0 0 874.3986 582.8025
  L 842.0588 657.8947
  A 6.99 6.99 0.0 0 0 845.7139 667.0795
  L 867.7566 676.5726
  A 6.99 6.99 0.0 0 0 876.9414 672.9175
  L 909.2812 597.8253
  Z
  M 624.3573 614.2901
  A 7.39 7.39 0.0 0 0 620.3747 604.6276
  L 599.0670 595.7581
  A 7.39 7.39 0.0 0 0 589.4045 599.7407
  L 558.3227 674.4099
  A 7.39 7.39 0.0 0 0 562.3053 684.0724
  L 583.6130 692.9419
  A 7.39 7.39 0.0 0 0 593.2755 688.9593
  L 624.3573 614.2901
  Z
  M 839.94 786.31
  C 843.43 787.76 846.10 790.02 847.41 793.75
  C 854.42 813.59 877.18 825.15 896.34 813.46
  Q 914.88 802.15 913.17 781.62
  C 911.30 759.19 890.48 746.66 869.32 752.51
  C 864.09 753.96 859.87 753.71 854.99 751.67
  Q 775.41 718.37 693.86 683.91
  C 685.29 680.30 677.76 682.12 673.72 691.48
  Q 661.69 719.39 647.39 753.69
  C 645.80 757.49 645.30 763.10 648.47 766.33
  C 653.57 771.55 660.50 774.98 667.85 776.33
  C 675.50 777.72 680.05 772.75 682.95 766.42
  Q 690.85 749.17 697.64 731.02
  C 698.57 728.53 700.79 727.85 703.32 728.92
  Q 770.88 757.71 839.94 786.31
  Z
  M 790.5578 785.2656
  A 6.96 6.96 0.0 0 0 786.8546 776.1459
  L 711.3543 744.2533
  A 6.96 6.96 0.0 0 0 702.2345 747.9564
  L 692.9422 769.9544
  A 6.96 6.96 0.0 0 0 696.6454 779.0741
  L 772.1457 810.9667
  A 6.96 6.96 0.0 0 0 781.2655 807.2636
  L 790.5578 785.2656
  Z
  M 351.63 922.22
  L 351.32 1011.00
  A 2.59 2.59 0.0 0 0 353.90 1013.60
  L 407.91 1013.78
  A 25.62 25.59 0.2 0 0 433.62 988.28
  L 433.76 945.50
  A 25.62 25.59 0.2 0 0 408.23 919.82
  L 354.22 919.64
  A 2.59 2.59 0.0 0 0 351.63 922.22
  Z
  M 751.22 963.03
  Q 751.44 963.02 751.98 963.77
  Q 768.83 987.55 785.60 1011.39
  Q 787.02 1013.41 789.50 1013.43
  Q 797.84 1013.53 805.77 1013.43
  Q 808.21 1013.40 808.21 1010.96
  Q 808.19 967.66 808.11 924.43
  Q 808.10 922.63 807.65 921.39
  A 1.87 1.87 0.0 0 0 805.90 920.17
  L 786.82 920.25
  A 2.41 2.41 0.0 0 0 784.42 922.66
  Q 784.40 942.61 784.39 965.00
  Q 784.39 966.82 784.24 968.73
  Q 784.07 970.68 782.85 969.14
  Q 774.79 958.96 766.37 946.96
  Q 763.29 942.57 754.83 929.27
  Q 751.88 924.64 749.45 922.82
  C 743.91 918.68 734.59 919.39 728.04 920.22
  A 1.35 1.34 86.4 0 0 726.87 921.56
  L 726.78 1011.08
  A 2.51 2.51 0.0 0 0 729.33 1013.59
  L 748.18 1013.26
  A 2.66 2.65 89.2 0 0 750.79 1010.57
  L 750.20 964.25
  Q 750.18 963.12 751.22 963.03
  Z
  M 536.3435 943.0538
  A 22.84 22.84 0.0 0 0 513.5833 920.1342
  L 476.9635 920.0064
  A 22.84 22.84 0.0 0 0 454.0440 942.7665
  L 453.8765 990.7262
  A 22.84 22.84 0.0 0 0 476.6367 1013.6458
  L 513.2565 1013.7736
  A 22.84 22.84 0.0 0 0 536.1760 991.0135
  L 536.3435 943.0538
  Z
  M 582.51 964.16
  Q 583.19 964.30 583.52 964.92
  Q 589.99 977.06 596.68 989.96
  Q 597.85 992.22 600.47 992.86
  Q 610.08 995.20 614.16 985.65
  Q 618.95 974.45 624.75 965.47
  Q 625.17 964.81 625.94 964.84
  A 0.63 0.62 -89.1 0 1 626.54 965.47
  L 626.14 1010.78
  A 2.43 2.42 -89.4 0 0 628.53 1013.23
  L 647.95 1013.48
  Q 650.91 1013.52 650.91 1010.55
  L 650.79 922.28
  A 2.24 2.24 0.0 0 0 648.55 920.04
  Q 638.55 920.04 628.33 920.23
  C 626.65 920.26 625.52 921.28 624.75 922.75
  Q 615.24 940.81 606.48 958.76
  Q 606.08 959.58 605.55 960.32
  Q 604.40 961.91 602.94 960.61
  Q 601.97 959.75 601.45 958.61
  Q 592.42 938.96 584.34 924.60
  Q 581.93 920.31 577.20 920.22
  Q 568.87 920.06 559.66 920.04
  Q 557.56 920.04 557.56 922.13
  L 557.47 1011.40
  A 1.93 1.92 89.9 0 0 559.40 1013.33
  L 580.41 1013.17
  A 2.05 2.05 0.0 0 0 582.44 1011.09
  L 581.86 964.69
  Q 581.85 964.02 582.51 964.16
  Z
  M 671.67 938.45
  C 673.84 940.21 676.24 942.74 676.24 945.65
  Q 676.21 968.81 676.20 990.18
  C 676.20 991.64 675.72 993.22 674.18 993.68
  Q 669.70 995.00 668.85 999.15
  Q 667.82 1004.14 668.40 1010.90
  Q 668.59 1013.20 670.87 1013.24
  Q 688.85 1013.54 706.35 1013.59
  A 1.95 1.94 -0.9 0 0 708.30 1011.59
  Q 708.12 1005.44 707.97 998.92
  C 707.90 995.64 704.16 994.50 701.95 992.77
  A 2.04 1.97 -79.0 0 1 701.24 991.67
  C 701.04 990.86 700.60 990.59 700.61 989.64
  Q 700.82 965.61 700.78 943.91
  C 700.76 939.12 707.86 938.70 708.01 934.81
  Q 708.22 929.31 708.06 922.21
  A 2.09 2.08 89.3 0 0 705.98 920.17
  L 670.23 920.01
  Q 668.67 920.01 668.64 921.56
  Q 668.52 928.09 668.73 935.49
  Q 668.76 936.54 670.01 937.28
  Q 670.88 937.80 671.67 938.45
  Z
  M 829.75 922.59
  L 829.75 1011.15
  A 2.61 2.61 0.0 0 0 832.36 1013.76
  L 887.61 1013.76
  A 24.18 23.57 -0.0 0 0 911.79 990.19
  L 911.79 943.55
  A 24.18 23.57 0.0 0 0 887.61 919.98
  L 832.36 919.98
  A 2.61 2.61 0.0 0 0 829.75 922.59
  Z
  M 956.56 944.15
  Q 956.51 940.91 959.74 940.93
  L 1009.02 941.27
  A 2.77 2.77 0.0 0 0 1011.81 938.48
  L 1011.72 923.57
  Q 1011.70 920.08 1008.21 920.07
  Q 972.42 919.96 934.92 920.14
  Q 934.31 920.14 933.82 920.49
  Q 933.11 920.99 933.12 921.85
  Q 933.36 953.97 933.02 989.11
  Q 932.96 994.83 933.74 997.74
  C 935.71 1005.05 941.72 1011.11 949.02 1012.89
  Q 952.04 1013.62 960.68 1013.58
  Q 986.90 1013.46 1008.53 1013.43
  Q 1011.94 1013.43 1011.86 1010.02
  L 1011.49 995.56
  Q 1011.42 992.45 1008.31 992.47
  L 959.68 992.83
  Q 956.76 992.85 956.75 989.93
  L 956.74 979.24
  A 2.76 2.76 0.0 0 1 959.51 976.48
  L 1002.85 976.59
  A 2.40 2.40 0.0 0 0 1005.26 974.15
  L 1005.06 959.55
  A 2.38 2.38 0.0 0 0 1002.73 957.20
  Q 981.78 956.76 959.72 956.59
  C 956.33 956.56 956.46 953.24 956.52 950.81
  Q 956.60 947.24 956.56 944.15
  Z
  M 1092.13 924.92
  Q 1083.29 949.27 1073.27 977.58
  A 1.01 1.00 -63.7 0 1 1071.78 978.09
  Q 1071.32 977.79 1070.95 976.74
  Q 1060.85 948.17 1052.98 926.46
  C 1051.69 922.88 1050.46 920.11 1046.61 920.06
  Q 1037.67 919.95 1030.24 920.19
  Q 1028.86 920.23 1028.74 921.60
  Q 1027.94 930.76 1031.95 941.05
  Q 1047.37 980.56 1058.02 1009.85
  Q 1059.32 1013.40 1063.09 1013.48
  Q 1071.80 1013.66 1081.55 1013.73
  Q 1084.86 1013.75 1086.02 1010.67
  Q 1100.91 971.02 1114.06 936.50
  Q 1116.81 929.27 1115.87 922.25
  Q 1115.60 920.27 1113.63 920.22
  Q 1105.03 920.00 1096.35 920.03
  C 1093.73 920.04 1092.85 922.94 1092.13 924.92
  Z"
/>
<path fill="#121212" d="
  M 563.97 463.67
  Q 564.06 463.37 564.30 463.18
  Q 564.51 463.00 564.69 462.80
  Q 574.60 451.99 588.15 451.88
  C 597.02 451.80 603.74 454.71 610.62 459.80
  Q 612.93 461.52 614.58 463.69
  Q 619.06 469.62 620.66 473.99
  C 621.97 477.58 622.88 480.64 626.82 482.35
  Q 694.94 512.01 764.34 541.89
  Q 768.36 543.62 769.81 540.25
  Q 777.60 522.13 785.04 504.33
  C 787.01 499.62 789.87 495.39 795.15 494.76
  C 804.00 493.71 814.79 500.44 820.95 506.34
  Q 822.76 508.07 822.27 510.62
  C 821.37 515.22 819.97 519.56 818.10 523.83
  Q 805.68 552.18 794.36 579.14
  C 790.79 587.65 783.29 591.23 775.02 587.66
  Q 680.55 546.83 617.13 519.71
  Q 611.79 517.43 605.49 515.77
  A 1.74 1.71 43.3 0 0 604.56 515.79
  Q 594.73 518.67 586.33 518.22
  C 571.17 517.41 560.09 506.31 556.10 492.07
  Q 554.75 487.23 555.47 482.33
  Q 556.85 472.89 562.77 465.14
  Q 563.08 464.73 563.47 464.41
  Q 563.84 464.12 563.97 463.67
  Z
  M 577.66 471.22
  Q 574.56 473.80 572.48 477.56
  Q 570.93 480.38 570.87 484.54
  Q 570.75 494.30 578.32 499.79
  C 590.40 508.55 605.70 500.62 607.47 486.62
  Q 608.01 482.31 606.01 477.74
  Q 604.10 473.39 600.44 470.14
  Q 599.41 469.23 598.35 468.96
  Q 597.12 468.64 596.05 468.23
  Q 595.98 468.20 596.04 468.16
  Q 596.08 468.13 596.06 468.07
  Q 596.03 467.96 595.91 467.93
  Q 589.71 466.18 584.50 467.47
  Q 581.16 468.30 577.66 471.22
  Z"
/>
<path fill="#121212" d="
  M 840.79 676.28
  Q 852.42 680.57 864.57 686.61
  C 872.58 690.58 877.55 695.78 873.44 705.03
  Q 871.54 709.30 869.85 713.28
  C 866.59 720.95 861.89 726.07 852.94 722.34
  Q 816.44 707.14 786.88 694.25
  C 780.17 691.32 778.62 685.42 780.70 678.57
  Q 782.48 672.73 784.62 668.22
  Q 789.42 658.09 794.11 646.92
  Q 822.09 580.28 852.26 509.83
  C 852.81 508.52 852.66 506.90 852.11 505.60
  C 845.34 489.53 847.68 470.00 863.72 460.60
  C 870.92 456.38 880.30 454.73 888.53 456.32
  C 901.45 458.82 911.06 468.24 914.31 480.92
  C 919.75 502.17 906.51 513.93 889.57 522.87
  Q 887.61 523.91 886.71 526.03
  Q 856.49 596.95 826.48 667.20
  A 1.94 1.92 32.8 0 0 826.97 669.39
  C 830.77 672.80 836.05 674.52 840.79 676.28
  Z
  M 899.81 488.68
  A 18.06 18.06 0.0 0 0 881.75 470.62
  A 18.06 18.06 0.0 0 0 863.69 488.68
  A 18.06 18.06 0.0 0 0 881.75 506.74
  A 18.06 18.06 0.0 0 0 899.81 488.68
  Z"
/>
<rect fill="#121212" x="-48.02" y="-18.98" transform="translate(726.51,492.99) rotate(23.2)" width="96.04" height="37.96" rx="7.04"/>
<path fill="#ffffff" d="
  M 577.66 471.22
  Q 581.16 468.30 584.50 467.47
  Q 589.71 466.18 595.91 467.93
  Q 596.03 467.96 596.06 468.07
  Q 596.08 468.13 596.04 468.16
  Q 595.98 468.20 596.05 468.23
  Q 597.12 468.64 598.35 468.96
  Q 599.41 469.23 600.44 470.14
  Q 604.10 473.39 606.01 477.74
  Q 608.01 482.31 607.47 486.62
  C 605.70 500.62 590.40 508.55 578.32 499.79
  Q 570.75 494.30 570.87 484.54
  Q 570.93 480.38 572.48 477.56
  Q 574.56 473.80 577.66 471.22
  Z"
/>
<circle fill="#ffffff" cx="881.75" cy="488.68" r="18.06"/>
<path fill="#121212" d="
  M 608.53 810.58
  Q 608.22 810.92 607.87 811.20
  Q 598.87 818.26 587.72 817.80
  C 572.53 817.16 558.33 803.97 556.08 789.22
  Q 554.57 779.29 558.48 770.19
  Q 561.60 762.92 566.66 759.25
  Q 570.80 756.24 575.34 753.12
  C 579.26 750.43 581.31 747.26 583.15 742.76
  Q 610.92 674.73 640.34 604.78
  Q 641.61 601.75 638.57 600.51
  Q 620.44 593.08 601.49 585.38
  C 591.33 581.26 589.22 573.86 593.82 564.15
  C 595.90 559.77 597.78 554.47 601.51 551.45
  Q 607.64 546.48 616.26 550.23
  Q 641.58 561.27 668.71 571.83
  C 676.23 574.76 690.82 581.55 686.37 592.28
  Q 650.67 678.34 616.82 760.05
  Q 616.35 761.20 616.26 762.48
  Q 616.19 763.55 617.02 765.06
  Q 624.25 778.19 621.42 790.76
  Q 618.87 802.08 609.89 809.63
  Q 609.61 809.86 609.29 810.01
  A 2.15 2.06 6.8 0 0 608.53 810.58
  Z
  M 607.44 783.79
  A 18.04 18.04 0.0 0 0 589.40 765.75
  A 18.04 18.04 0.0 0 0 571.36 783.79
  A 18.04 18.04 0.0 0 0 589.40 801.83
  A 18.04 18.04 0.0 0 0 607.44 783.79
  Z"
/>
<rect fill="#121212" x="-18.99" y="-47.87" transform="translate(875.67,627.86) rotate(23.3)" width="37.98" height="95.74" rx="6.99"/>
<rect fill="#121212" x="-18.93" y="-47.83" transform="translate(591.34,644.35) rotate(22.6)" width="37.86" height="95.66" rx="7.39"/>
<path fill="#121212" d="
  M 839.94 786.31
  Q 770.88 757.71 703.32 728.92
  C 700.79 727.85 698.57 728.53 697.64 731.02
  Q 690.85 749.17 682.95 766.42
  C 680.05 772.75 675.50 777.72 667.85 776.33
  C 660.50 774.98 653.57 771.55 648.47 766.33
  C 645.30 763.10 645.80 757.49 647.39 753.69
  Q 661.69 719.39 673.72 691.48
  C 677.76 682.12 685.29 680.30 693.86 683.91
  Q 775.41 718.37 854.99 751.67
  C 859.87 753.71 864.09 753.96 869.32 752.51
  C 890.48 746.66 911.30 759.19 913.17 781.62
  Q 914.88 802.15 896.34 813.46
  C 877.18 825.15 854.42 813.59 847.41 793.75
  C 846.10 790.02 843.43 787.76 839.94 786.31
  Z
  M 898.11 784.43
  A 18.19 18.19 0.0 0 0 879.92 766.24
  A 18.19 18.19 0.0 0 0 861.73 784.43
  A 18.19 18.19 0.0 0 0 879.92 802.62
  A 18.19 18.19 0.0 0 0 898.11 784.43
  Z"
/>
<rect fill="#121212" x="-47.94" y="-18.90" transform="translate(741.75,777.61) rotate(22.9)" width="95.88" height="37.80" rx="6.96"/>
<circle fill="#ffffff" cx="589.40" cy="783.79" r="18.04"/>
<circle fill="#ffffff" cx="879.92" cy="784.43" r="18.19"/>
<path fill="#121212" d="
  M 351.63 922.22
  A 2.59 2.59 0.0 0 1 354.22 919.64
  L 408.23 919.82
  A 25.62 25.59 0.2 0 1 433.76 945.50
  L 433.62 988.28
  A 25.62 25.59 0.2 0 1 407.91 1013.78
  L 353.90 1013.60
  A 2.59 2.59 0.0 0 1 351.32 1011.00
  L 351.63 922.22
  Z
  M 408.8488 943.1814
  A 2.60 2.60 0.0 0 0 406.2443 940.5859
  L 378.5843 940.6342
  A 2.60 2.60 0.0 0 0 375.9888 943.2387
  L 376.0712 990.4386
  A 2.60 2.60 0.0 0 0 378.6757 993.0341
  L 406.3357 992.9858
  A 2.60 2.60 0.0 0 0 408.9312 990.3813
  L 408.8488 943.1814
  Z"
/>
<path fill="#121212" d="
  M 751.22 963.03
  Q 750.18 963.12 750.20 964.25
  L 750.79 1010.57
  A 2.66 2.65 89.2 0 1 748.18 1013.26
  L 729.33 1013.59
  A 2.51 2.51 0.0 0 1 726.78 1011.08
  L 726.87 921.56
  A 1.35 1.34 86.4 0 1 728.04 920.22
  C 734.59 919.39 743.91 918.68 749.45 922.82
  Q 751.88 924.64 754.83 929.27
  Q 763.29 942.57 766.37 946.96
  Q 774.79 958.96 782.85 969.14
  Q 784.07 970.68 784.24 968.73
  Q 784.39 966.82 784.39 965.00
  Q 784.40 942.61 784.42 922.66
  A 2.41 2.41 0.0 0 1 786.82 920.25
  L 805.90 920.17
  A 1.87 1.87 0.0 0 1 807.65 921.39
  Q 808.10 922.63 808.11 924.43
  Q 808.19 967.66 808.21 1010.96
  Q 808.21 1013.40 805.77 1013.43
  Q 797.84 1013.53 789.50 1013.43
  Q 787.02 1013.41 785.60 1011.39
  Q 768.83 987.55 751.98 963.77
  Q 751.44 963.02 751.22 963.03
  Z"
/>
<path fill="#121212" d="
  M 536.1760 991.0135
  A 22.84 22.84 0.0 0 1 513.2565 1013.7736
  L 476.6367 1013.6458
  A 22.84 22.84 0.0 0 1 453.8765 990.7262
  L 454.0440 942.7665
  A 22.84 22.84 0.0 0 1 476.9635 920.0064
  L 513.5833 920.1342
  A 22.84 22.84 0.0 0 1 536.3435 943.0538
  L 536.1760 991.0135
  Z
  M 512.29 942.90
  A 2.22 2.22 0.0 0 0 510.07 940.68
  L 480.61 940.68
  A 2.22 2.22 0.0 0 0 478.39 942.90
  L 478.39 990.80
  A 2.22 2.22 0.0 0 0 480.61 993.02
  L 510.07 993.02
  A 2.22 2.22 0.0 0 0 512.29 990.80
  L 512.29 942.90
  Z"
/>
<path fill="#121212" d="
  M 582.51 964.16
  Q 581.85 964.02 581.86 964.69
  L 582.44 1011.09
  A 2.05 2.05 0.0 0 1 580.41 1013.17
  L 559.40 1013.33
  A 1.93 1.92 89.9 0 1 557.47 1011.40
  L 557.56 922.13
  Q 557.56 920.04 559.66 920.04
  Q 568.87 920.06 577.20 920.22
  Q 581.93 920.31 584.34 924.60
  Q 592.42 938.96 601.45 958.61
  Q 601.97 959.75 602.94 960.61
  Q 604.40 961.91 605.55 960.32
  Q 606.08 959.58 606.48 958.76
  Q 615.24 940.81 624.75 922.75
  C 625.52 921.28 626.65 920.26 628.33 920.23
  Q 638.55 920.04 648.55 920.04
  A 2.24 2.24 0.0 0 1 650.79 922.28
  L 650.91 1010.55
  Q 650.91 1013.52 647.95 1013.48
  L 628.53 1013.23
  A 2.43 2.42 -89.4 0 1 626.14 1010.78
  L 626.54 965.47
  A 0.63 0.62 -89.1 0 0 625.94 964.84
  Q 625.17 964.81 624.75 965.47
  Q 618.95 974.45 614.16 985.65
  Q 610.08 995.20 600.47 992.86
  Q 597.85 992.22 596.68 989.96
  Q 589.99 977.06 583.52 964.92
  Q 583.19 964.30 582.51 964.16
  Z"
/>
<path fill="#121212" d="
  M 670.01 937.28
  Q 668.76 936.54 668.73 935.49
  Q 668.52 928.09 668.64 921.56
  Q 668.67 920.01 670.23 920.01
  L 705.98 920.17
  A 2.09 2.08 89.3 0 1 708.06 922.21
  Q 708.22 929.31 708.01 934.81
  C 707.86 938.70 700.76 939.12 700.78 943.91
  Q 700.82 965.61 700.61 989.64
  C 700.60 990.59 701.04 990.86 701.24 991.67
  A 2.04 1.97 -79.0 0 0 701.95 992.77
  C 704.16 994.50 707.90 995.64 707.97 998.92
  Q 708.12 1005.44 708.30 1011.59
  A 1.95 1.94 -0.9 0 1 706.35 1013.59
  Q 688.85 1013.54 670.87 1013.24
  Q 668.59 1013.20 668.40 1010.90
  Q 667.82 1004.14 668.85 999.15
  Q 669.70 995.00 674.18 993.68
  C 675.72 993.22 676.20 991.64 676.20 990.18
  Q 676.21 968.81 676.24 945.65
  C 676.24 942.74 673.84 940.21 671.67 938.45
  Q 670.88 937.80 670.01 937.28
  Z"
/>
<path fill="#121212" d="
  M 829.75 922.59
  A 2.61 2.61 0.0 0 1 832.36 919.98
  L 887.61 919.98
  A 24.18 23.57 -0.0 0 1 911.79 943.55
  L 911.79 990.19
  A 24.18 23.57 -0.0 0 1 887.61 1013.76
  L 832.36 1013.76
  A 2.61 2.61 0.0 0 1 829.75 1011.15
  L 829.75 922.59
  Z
  M 887.18 942.91
  A 2.26 2.26 0.0 0 0 884.92 940.65
  L 856.44 940.65
  A 2.26 2.26 0.0 0 0 854.18 942.91
  L 854.18 990.69
  A 2.26 2.26 0.0 0 0 856.44 992.95
  L 884.92 992.95
  A 2.26 2.26 0.0 0 0 887.18 990.69
  L 887.18 942.91
  Z"
/>
<path fill="#121212" d="
  M 956.56 944.15
  Q 956.60 947.24 956.52 950.81
  C 956.46 953.24 956.33 956.56 959.72 956.59
  Q 981.78 956.76 1002.73 957.20
  A 2.38 2.38 0.0 0 1 1005.06 959.55
  L 1005.26 974.15
  A 2.40 2.40 0.0 0 1 1002.85 976.59
  L 959.51 976.48
  A 2.76 2.76 0.0 0 0 956.74 979.24
  L 956.75 989.93
  Q 956.76 992.85 959.68 992.83
  L 1008.31 992.47
  Q 1011.42 992.45 1011.49 995.56
  L 1011.86 1010.02
  Q 1011.94 1013.43 1008.53 1013.43
  Q 986.90 1013.46 960.68 1013.58
  Q 952.04 1013.62 949.02 1012.89
  C 941.72 1011.11 935.71 1005.05 933.74 997.74
  Q 932.96 994.83 933.02 989.11
  Q 933.36 953.97 933.12 921.85
  Q 933.11 920.99 933.82 920.49
  Q 934.31 920.14 934.92 920.14
  Q 972.42 919.96 1008.21 920.07
  Q 1011.70 920.08 1011.72 923.57
  L 1011.81 938.48
  A 2.77 2.77 0.0 0 1 1009.02 941.27
  L 959.74 940.93
  Q 956.51 940.91 956.56 944.15
  Z"
/>
<path fill="#121212" d="
  M 1092.13 924.92
  C 1092.85 922.94 1093.73 920.04 1096.35 920.03
  Q 1105.03 920.00 1113.63 920.22
  Q 1115.60 920.27 1115.87 922.25
  Q 1116.81 929.27 1114.06 936.50
  Q 1100.91 971.02 1086.02 1010.67
  Q 1084.86 1013.75 1081.55 1013.73
  Q 1071.80 1013.66 1063.09 1013.48
  Q 1059.32 1013.40 1058.02 1009.85
  Q 1047.37 980.56 1031.95 941.05
  Q 1027.94 930.76 1028.74 921.60
  Q 1028.86 920.23 1030.24 920.19
  Q 1037.67 919.95 1046.61 920.06
  C 1050.46 920.11 1051.69 922.88 1052.98 926.46
  Q 1060.85 948.17 1070.95 976.74
  Q 1071.32 977.79 1071.78 978.09
  A 1.01 1.00 -63.7 0 0 1073.27 977.58
  Q 1083.29 949.27 1092.13 924.92
  Z"
/>
<rect fill="#ffffff" x="-16.43" y="-26.20" transform="translate(392.46,966.81) rotate(-0.1)" width="32.86" height="52.40" rx="2.60"/>
<rect fill="#ffffff" x="854.18" y="940.65" width="33.00" height="52.30" rx="2.26"/>
<rect fill="#ffffff" x="478.39" y="940.68" width="33.90" height="52.34" rx="2.22"/>
</svg>
